<?xml version="1.0" encoding="UTF-8"?>
<svg xmlns="http://www.w3.org/2000/svg" xmlns:xlink="http://www.w3.org/1999/xlink" width="48pt" height="48pt" viewBox="0 0 48 48" version="1.2">
<defs>
<clipPath id="clip1">
  <path d="M 18 2 L 27 2 L 27 11 L 18 11 Z M 18 2 "/>
</clipPath>
<clipPath id="clip2">
  <path d="M 16.722656 6.9375 L 22.171875 0.117188 L 28.015625 4.785156 L 22.570312 11.605469 Z M 16.722656 6.9375 "/>
</clipPath>
<clipPath id="clip3">
  <path d="M 16.722656 6.9375 L 22.171875 0.117188 L 28.015625 4.785156 L 22.570312 11.605469 Z M 16.722656 6.9375 "/>
</clipPath>
<clipPath id="clip4">
  <path d="M 16.742188 6.914062 L 22.171875 0.113281 L 28.125 4.867188 L 22.691406 11.667969 Z M 16.742188 6.914062 "/>
</clipPath>
<clipPath id="clip5">
  <path d="M 16.742188 6.914062 L 22.15625 0.132812 L 27.996094 4.800781 L 22.582031 11.578125 Z M 16.742188 6.914062 "/>
</clipPath>
<clipPath id="clip6">
  <path d="M 16 37 L 21 37 L 21 42 L 16 42 Z M 16 37 "/>
</clipPath>
<clipPath id="clip7">
  <path d="M 15.453125 39.742188 L 17.789062 36.820312 L 20.710938 39.15625 L 18.375 42.078125 Z M 15.453125 39.742188 "/>
</clipPath>
<clipPath id="clip8">
  <path d="M 15.453125 39.742188 L 17.789062 36.820312 L 20.710938 39.15625 L 18.375 42.078125 Z M 15.453125 39.742188 "/>
</clipPath>
<clipPath id="clip9">
  <path d="M 15.457031 39.746094 L 17.855469 36.746094 L 20.777344 39.078125 L 18.378906 42.078125 Z M 15.457031 39.746094 "/>
</clipPath>
<clipPath id="clip10">
  <path d="M 15.457031 39.746094 L 17.792969 36.824219 L 20.703125 39.148438 L 18.371094 42.074219 Z M 15.457031 39.746094 "/>
</clipPath>
<clipPath id="clip11">
  <path d="M 16 26 L 21 26 L 21 31 L 16 31 Z M 16 26 "/>
</clipPath>
<clipPath id="clip12">
  <path d="M 15.464844 28.855469 L 17.800781 25.933594 L 20.722656 28.269531 L 18.386719 31.191406 Z M 15.464844 28.855469 "/>
</clipPath>
<clipPath id="clip13">
  <path d="M 15.464844 28.855469 L 17.800781 25.933594 L 20.722656 28.269531 L 18.386719 31.191406 Z M 15.464844 28.855469 "/>
</clipPath>
<clipPath id="clip14">
  <path d="M 15.46875 28.859375 L 17.867188 25.859375 L 20.789062 28.191406 L 18.390625 31.191406 Z M 15.46875 28.859375 "/>
</clipPath>
<clipPath id="clip15">
  <path d="M 15.46875 28.859375 L 17.804688 25.9375 L 20.714844 28.261719 L 18.382812 31.1875 Z M 15.46875 28.859375 "/>
</clipPath>
<clipPath id="clip16">
  <path d="M 24 39 L 29 39 L 29 43 L 24 43 Z M 24 39 "/>
</clipPath>
<clipPath id="clip17">
  <path d="M 28.890625 41.8125 L 25.476562 43.332031 L 23.953125 39.914062 L 27.371094 38.394531 Z M 28.890625 41.8125 "/>
</clipPath>
<clipPath id="clip18">
  <path d="M 28.890625 41.8125 L 25.476562 43.332031 L 23.953125 39.914062 L 27.371094 38.394531 Z M 28.890625 41.8125 "/>
</clipPath>
<clipPath id="clip19">
  <path d="M 28.890625 41.808594 L 25.378906 43.367188 L 23.859375 39.953125 L 27.371094 38.390625 Z M 28.890625 41.808594 "/>
</clipPath>
<clipPath id="clip20">
  <path d="M 28.890625 41.808594 L 25.472656 43.328125 L 23.957031 39.921875 L 27.375 38.402344 Z M 28.890625 41.808594 "/>
</clipPath>
</defs>
<g id="surface1">
<g clip-path="url(#clip1)" clip-rule="nonzero">
<g clip-path="url(#clip2)" clip-rule="nonzero">
<g clip-path="url(#clip3)" clip-rule="nonzero">
<g clip-path="url(#clip4)" clip-rule="nonzero">
<g clip-path="url(#clip5)" clip-rule="nonzero">
<path style=" stroke:none;fill-rule:nonzero;fill:rgb(97.24884%,97.648621%,98.039246%);fill-opacity:1;" d="M 24.199219 8.964844 C 24.210938 9.953125 23.328125 10.730469 22.351562 10.640625 C 21.019531 10.519531 20.402344 10.363281 19.679688 7.871094 C 19.164062 6.097656 18.214844 5.070312 18.972656 4.125 C 22.144531 0.152344 28.179688 2.613281 25.695312 5.722656 C 24.851562 6.78125 23.863281 6.59375 24.1875 8.789062 C 24.195312 8.84375 24.199219 8.902344 24.199219 8.964844 "/>
</g>
</g>
</g>
</g>
</g>
<g clip-path="url(#clip6)" clip-rule="nonzero">
<g clip-path="url(#clip7)" clip-rule="nonzero">
<g clip-path="url(#clip8)" clip-rule="nonzero">
<g clip-path="url(#clip9)" clip-rule="nonzero">
<g clip-path="url(#clip10)" clip-rule="nonzero">
<path style=" stroke:none;fill-rule:nonzero;fill:rgb(97.24884%,97.648621%,98.039246%);fill-opacity:1;" d="M 18.527344 37.734375 C 19.050781 37.769531 20.867188 38.945312 20.265625 39.699219 C 16.703125 44.160156 14.105469 37.4375 18.527344 37.734375 "/>
</g>
</g>
</g>
</g>
</g>
<g clip-path="url(#clip11)" clip-rule="nonzero">
<g clip-path="url(#clip12)" clip-rule="nonzero">
<g clip-path="url(#clip13)" clip-rule="nonzero">
<g clip-path="url(#clip14)" clip-rule="nonzero">
<g clip-path="url(#clip15)" clip-rule="nonzero">
<path style=" stroke:none;fill-rule:nonzero;fill:rgb(100%,100%,100%);fill-opacity:1;" d="M 18.539062 26.847656 C 19.058594 26.882812 20.878906 28.058594 20.277344 28.8125 C 16.714844 33.273438 14.113281 26.550781 18.539062 26.847656 "/>
</g>
</g>
</g>
</g>
</g>
<g clip-path="url(#clip16)" clip-rule="nonzero">
<g clip-path="url(#clip17)" clip-rule="nonzero">
<g clip-path="url(#clip18)" clip-rule="nonzero">
<g clip-path="url(#clip19)" clip-rule="nonzero">
<g clip-path="url(#clip20)" clip-rule="nonzero">
<path style=" stroke:none;fill-rule:nonzero;fill:rgb(97.24884%,97.648621%,98.039246%);fill-opacity:1;" d="M 25.238281 42.183594 C 24.789062 41.910156 23.71875 40.027344 24.601562 39.636719 C 29.8125 37.316406 29.03125 44.480469 25.238281 42.183594 "/>
</g>
</g>
</g>
</g>
</g>
</g>
</svg>
