<?xml version="1.0" standalone="no"?>
<!DOCTYPE svg PUBLIC "-//W3C//DTD SVG 20010904//EN"
 "http://www.w3.org/TR/2001/REC-SVG-20010904/DTD/svg10.dtd">
<svg version="1.0" xmlns="http://www.w3.org/2000/svg"
 width="700.000000pt" height="700.000000pt" viewBox="0 0 700.000000 700.000000"
 preserveAspectRatio="xMidYMid meet">
<metadata>
Created by potrace 1.14, written by Peter Selinger 2001-2017
</metadata>
<g transform="translate(0.000000,700.000000) scale(0.100000,-0.100000)"
fill="#000000" stroke="none">
<path d="M3318 6905 c-2 -1 -46 -5 -99 -9 -53 -4 -107 -9 -120 -11 -13 -2 -46
-6 -74 -10 -27 -3 -75 -10 -105 -15 -30 -5 -70 -12 -88 -15 -42 -7 -338 -82
-372 -94 -14 -5 -34 -12 -45 -17 -11 -4 -27 -8 -35 -10 -8 -2 -30 -9 -50 -18
-19 -8 -64 -25 -100 -39 -122 -47 -325 -144 -455 -220 -60 -34 -250 -157 -280
-179 -21 -17 -83 -64 -115 -88 -121 -90 -371 -328 -467 -443 -28 -34 -60 -71
-70 -82 -58 -62 -230 -310 -302 -432 -55 -96 -181 -343 -174 -343 3 0 1 -6 -5
-12 -5 -7 -26 -56 -46 -108 -20 -52 -41 -104 -46 -115 -33 -76 -108 -351 -144
-535 -5 -24 -19 -113 -21 -135 -3 -22 -13 -106 -25 -205 -8 -69 -5 -537 4
-605 3 -22 8 -60 11 -85 60 -497 227 -969 496 -1400 42 -69 96 -150 118 -180
23 -30 49 -66 59 -79 9 -14 25 -34 34 -45 213 -259 439 -478 653 -632 113 -81
240 -166 300 -200 11 -6 38 -21 60 -34 59 -34 240 -123 315 -155 36 -15 79
-33 95 -41 123 -52 491 -160 610 -178 22 -3 51 -8 65 -11 54 -11 74 -15 129
-21 31 -3 65 -8 76 -10 90 -17 496 -24 640 -11 144 13 189 18 280 33 363 59
684 164 1017 333 86 44 169 88 185 99 15 10 66 43 113 73 81 51 283 197 325
236 11 10 45 39 75 65 188 159 428 431 580 658 251 375 411 755 516 1230 10
42 30 165 40 240 12 89 14 113 21 230 11 189 6 437 -12 570 -2 19 -7 58 -10
85 -6 46 -18 123 -30 185 -24 123 -38 190 -46 215 -5 17 -18 64 -30 105 -78
270 -205 563 -346 794 -32 53 -62 105 -68 114 -18 31 -127 186 -164 232 -67
83 -76 94 -151 179 -88 101 -178 191 -280 281 -40 36 -78 70 -84 75 -64 60
-413 305 -433 305 -3 0 -14 6 -22 14 -32 29 -334 177 -468 229 -168 66 -276
102 -433 142 -20 5 -206 45 -233 51 -39 7 -181 26 -302 40 -56 6 -461 14 -467
9z"/>
</g>
</svg>
