<svg preserveAspectRatio="none" viewBox="0 0 1853 2664" fill="none" xmlns="http://www.w3.org/2000/svg">
    <path d="M2792 1073C2792 1663.94 2323.02 2143 1744.5 2143C1165.98 2143 697 1663.94 697 1073C697 482.055 1165.98 3 1744.5 3C2323.02 3 2792 482.055 2792 1073Z"
          fill="#3D0A6D"/>
    <path d="M1879 1303C1879 1891.18 1606.34 2368 1270 2368C933.659 2368 661 1891.18 661 1303C661 714.817 933.659 238 1270 238C1606.34 238 1879 714.817 1879 1303Z"
          fill="#3C096C"/>
    <path d="M2795 1070C2795 1660.94 2326.02 2140 1747.5 2140C1168.98 2140 700 1660.94 700 1070C700 479.055 1168.98 0 1747.5 0C2326.02 0 2795 479.055 2795 1070Z"
          fill="#3D0A6D"/>
    <path d="M1880 1627.5C1880 1737.68 1670.47 1827 1412 1827C1153.53 1827 944 1737.68 944 1627.5C944 1517.32 1153.53 1428 1412 1428C1670.47 1428 1880 1517.32 1880 1627.5Z"
          fill="#3D0A6D"/>
    <path d="M1889.03 1338.39C1855.81 1925.64 1556.66 2386.29 1220.86 2367.3C885.054 2348.31 639.757 1856.85 672.972 1269.61C706.187 682.365 1005.34 221.706 1341.14 240.699C1676.95 259.693 1922.24 751.146 1889.03 1338.39Z"
          fill="#3D0A6D"/>
    <path d="M881 2034H1853V2664H881V2034Z" fill="#3C096C"/>
    <path d="M981 2467C981 2753.08 761.396 2985 490.5 2985C219.604 2985 0 2753.08 0 2467C0 2180.92 219.604 1949 490.5 1949C761.396 1949 981 2180.92 981 2467Z"
          fill="white"/>
</svg>
