<?xml version="1.0" encoding="UTF-8" standalone="no"?>
<svg
   xmlns:dc="http://purl.org/dc/elements/1.1/"
   xmlns:cc="http://creativecommons.org/ns#"
   xmlns:rdf="http://www.w3.org/1999/02/22-rdf-syntax-ns#"
   xmlns:svg="http://www.w3.org/2000/svg"
   xmlns="http://www.w3.org/2000/svg"
   xmlns:sodipodi="http://sodipodi.sourceforge.net/DTD/sodipodi-0.dtd"
   xmlns:inkscape="http://www.inkscape.org/namespaces/inkscape"
   version="1.1"
   id="svg2"
   xml:space="preserve"
   width="901.66669"
   height="378.04001"
   viewBox="0 0 901.66669 378.04001"
   sodipodi:docname="Master_Qluster-Logo_CMYK_Qluster Primary Logo_Colour.eps"><metadata
     id="metadata8"><rdf:RDF><cc:Work
         rdf:about=""><dc:format>image/svg+xml</dc:format><dc:type
           rdf:resource="http://purl.org/dc/dcmitype/StillImage" /></cc:Work></rdf:RDF></metadata><defs
     id="defs6"><clipPath
       clipPathUnits="userSpaceOnUse"
       id="clipPath34"><path
         d="m 5518.3,1121.88 -0.52,0.52 c -35.17,35.18 -92.2,35.18 -127.37,0.01 0,0 -137.31,-137.512 -140.51,-140.512 -44.7,-42.199 -105,-68.097 -171.3,-68.097 H 1843.9 c -87.9,0 -165.3,45.5 -209.7,114.199 -25.4,39 -40.1,85.6 -40.1,135.6 v 336.74 c 0,0.96 -1.27,1.22 -1.66,0.35 -33.78,-74.52 -86.43,-138.78 -151.94,-186.49 -8.8,-6.5 -17.8,-12.6 -27.1,-18.4 v -132.2 c 0,-93.2 29.6,-179.401 79.8,-249.799 27.8,-39 61.9,-73.102 100.9,-100.903 12.8,-9.097 26.2,-17.597 40.1,-25.296 62,-34.704 133.6,-54.5 209.7,-54.5 h 3234.7 c 117.9,0 224.7,47.398 302.4,124.199 l 137.26,137.25 c 35.15,35.159 35.17,92.149 0.04,127.329 z"
         id="path32" /></clipPath><linearGradient
       x1="0"
       y1="0"
       x2="1"
       y2="0"
       gradientUnits="userSpaceOnUse"
       gradientTransform="matrix(4131.24,0,0,-4131.24,1413.4,1117.16)"
       spreadMethod="pad"
       id="linearGradient40"><stop
         style="stop-opacity:1;stop-color:#FFFFFF"
         offset="0"
         id="stop36" /><stop
         style="stop-opacity:1;stop-color:#FFFFFF"
         offset="1"
         id="stop38" /></linearGradient></defs><sodipodi:namedview
     pagecolor="#FFFFFF"
     bordercolor="#FFFFFF"
     borderopacity="1"
     objecttolerance="10"
     gridtolerance="10"
     guidetolerance="10"
     inkscape:pageopacity="0"
     inkscape:pageshadow="2"
     inkscape:window-width="640"
     inkscape:window-height="480"
     id="namedview4" /><g
     id="g10"
     inkscape:groupmode="layer"
     inkscape:label="ink_ext_XXXXXX"
     transform="matrix(1.3333333,0,0,-1.3333333,0,378.04)"><g
       id="g12"
       transform="scale(0.1)"><path
         d="m 1823.05,1254.38 c 27.53,0 50.56,9.26 69.11,27.8 18.51,18.52 27.8,41.55 27.8,69.11 v 981.8 c 0,27.53 -8.74,50.57 -26.21,69.11 -17.48,18.51 -39.99,27.8 -67.52,27.8 -27.56,0 -50.6,-9.29 -69.11,-27.8 -18.55,-18.54 -27.8,-41.58 -27.8,-69.11 v -981.8 c 0,-27.56 8.98,-50.59 27.01,-69.11 18,-18.54 40.23,-27.8 66.72,-27.8"
         style="fill:#FFFFFF;fill-opacity:1;fill-rule:nonzero;stroke:none"
         id="path14" /><path
         d="m 2412.28,1238.49 c 117.56,0 207.57,32.82 270.07,98.5 62.48,65.65 93.73,154.62 93.73,266.9 v 403.52 c 0,27.53 -9.01,50.57 -27,69.11 -18.03,18.52 -40.79,27.8 -68.32,27.8 -27.55,0 -50.31,-9.28 -68.31,-27.8 -18.02,-18.54 -27.01,-41.58 -27.01,-69.11 v -403.52 c 0,-64.61 -14.3,-112.55 -42.89,-143.78 -28.59,-31.25 -72.03,-46.86 -130.27,-46.86 -57.19,0 -100.09,15.61 -128.69,46.86 -28.59,31.23 -42.89,79.17 -42.89,143.78 v 403.52 c 0,27.53 -9.01,50.57 -27.01,69.11 -18.02,18.52 -40.78,27.8 -68.31,27.8 -27.56,0 -50.32,-9.28 -68.31,-27.8 -18.03,-18.54 -27.01,-41.58 -27.01,-69.11 v -403.52 c 0,-112.28 30.98,-201.25 92.94,-266.9 61.95,-65.68 151.72,-98.5 269.28,-98.5"
         style="fill:#FFFFFF;fill-opacity:1;fill-rule:nonzero;stroke:none"
         id="path16" /><path
         d="m 2988.48,1271.06 c 62.48,-21.7 124.95,-32.57 187.46,-32.57 49.76,0 98.49,9.8 146.16,29.39 47.66,19.59 87.37,48.46 119.15,86.59 31.77,38.12 47.66,84.2 47.66,138.21 0,46.6 -8.49,84.99 -25.42,115.18 -16.96,30.19 -39.19,54.81 -66.72,73.87 -27.56,19.07 -57.75,34.41 -90.56,46.08 -32.84,11.64 -65.14,21.69 -96.91,30.18 -30.74,8.46 -59.57,17.2 -86.59,26.21 -27,8.99 -48.45,20.66 -64.33,34.95 -15.89,14.3 -23.84,33.62 -23.84,57.99 0,26.46 6.88,45.8 20.66,57.99 13.75,12.16 29.91,20.1 48.45,23.83 18.52,3.69 35.74,5.56 51.63,5.56 39.17,0 73.88,-6.91 104.07,-20.66 30.18,-13.77 54.25,-32.31 72.28,-55.6 13.75,-12.71 31.22,-19.86 52.42,-21.44 21.17,-1.59 39.72,3.97 55.61,16.67 22.24,18 32.29,38.14 30.18,60.37 -2.13,22.25 -9.01,41.31 -20.65,57.2 -22.24,28.6 -49.8,51.63 -82.61,69.1 -32.84,17.48 -67.27,30.19 -103.27,38.13 -36.02,7.95 -70.44,11.92 -103.26,11.92 -51.91,0 -101.43,-10.08 -148.55,-30.19 -47.13,-20.13 -85.53,-48.72 -115.17,-85.79 -29.66,-37.08 -44.48,-82.08 -44.48,-135.03 0,-46.62 8.98,-85.27 27.01,-115.97 18,-30.74 41.3,-55.36 69.9,-73.88 28.59,-18.54 60.1,-33.63 94.52,-45.28 34.41,-11.66 68.04,-22.24 100.88,-31.77 31.78,-8.49 60.63,-17.48 86.58,-27.01 25.95,-9.53 46.88,-21.2 62.76,-34.95 15.88,-13.77 23.83,-32.32 23.83,-55.61 0,-27.55 -7.14,-47.93 -21.45,-61.16 -14.3,-13.25 -30.98,-21.72 -50.04,-25.42 -19.06,-3.72 -36.54,-6.1 -52.43,-7.15 -50.83,0 -93.2,8.47 -127.09,25.42 -33.91,16.93 -66.2,40.76 -96.92,71.49 -18.01,18 -36.53,27.81 -55.59,29.39 -19.07,1.59 -37.09,-2.93 -54.02,-13.5 -26.49,-16.95 -40.26,-37.08 -41.3,-60.37 -1.08,-23.31 3.7,-42.37 14.29,-57.19 41.31,-55.08 93.19,-93.48 155.7,-115.18"
         style="fill:#FFFFFF;fill-opacity:1;fill-rule:nonzero;stroke:none"
         id="path18" /><path
         d="m 3588.35,1913.68 h 73.08 V 1475.2 c 0,-51.9 7.95,-92.69 23.83,-122.33 15.88,-29.66 35.75,-51.63 59.57,-65.92 23.83,-14.3 49.25,-23.31 76.26,-27.01 27.01,-3.73 51.63,-5.56 73.88,-5.56 37.06,0 71.74,9.53 104.05,28.6 32.3,19.06 48.46,43.41 48.46,73.07 0,24.35 -6.1,43.42 -18.27,57.2 -12.19,13.75 -25.69,20.65 -40.51,20.65 -13.78,0 -25.97,-2.38 -36.54,-7.15 -10.6,-4.76 -22.25,-7.15 -34.95,-7.15 -11.67,0 -22.51,2.11 -32.57,6.36 -10.08,4.21 -18.02,11.12 -23.83,20.65 -5.83,9.53 -8.74,21.69 -8.74,36.54 v 430.53 h 112.79 c 25.42,0 46.6,8.19 63.56,24.62 16.92,16.41 25.42,36.79 25.42,61.17 0,25.42 -8.5,46.59 -25.42,63.55 -16.96,16.93 -38.14,25.42 -63.56,25.42 h -112.79 v 101.67 c 0,27.53 -8.74,50.57 -26.21,69.11 -17.48,18.52 -39.99,27.8 -67.52,27.8 -27.56,0 -50.59,-9.28 -69.11,-27.8 -18.54,-18.54 -27.8,-41.58 -27.8,-69.11 v -101.67 h -73.08 c -25.42,0 -46.62,-8.22 -63.55,-24.63 -16.95,-16.43 -25.42,-36.81 -25.42,-61.17 0,-25.41 8.47,-46.61 25.42,-63.54 16.93,-16.95 38.13,-25.42 63.55,-25.42"
         style="fill:#FFFFFF;fill-opacity:1;fill-rule:nonzero;stroke:none"
         id="path20" /><path
         d="m 4257.98,1808.83 c 11.64,33.88 27.53,60.89 47.65,81.02 20.11,20.11 43.94,34.41 71.5,42.89 27.53,8.47 57.19,12.71 88.96,12.71 32.82,0 63.8,-7.15 92.94,-21.44 29.12,-14.3 53.47,-33.64 73.08,-57.99 19.59,-24.38 30.44,-51.91 32.57,-82.61 v -11.12 h -416.27 c 2.58,13.12 5.73,25.36 9.57,36.54 z m 5.56,-513.94 c 66.18,-37.61 144.29,-56.4 234.33,-56.4 52.95,0 104.31,8.74 154.1,26.22 49.77,17.47 88.42,37.85 115.97,61.16 29.64,23.28 44.48,49.25 44.48,77.84 0,21.18 -7.68,39.72 -23.03,55.61 -15.37,15.88 -34.7,23.83 -57.98,23.83 -16.96,0 -34.95,-4.77 -54.02,-14.3 -11.67,-6.36 -24.63,-14.05 -38.92,-23.04 -14.3,-9.01 -33.12,-16.68 -56.4,-23.03 -23.31,-6.36 -54.56,-9.53 -93.73,-9.53 -42.37,0 -82.36,10.32 -119.95,30.98 -37.61,20.65 -68.31,50.83 -92.14,90.55 -13.93,23.2 -23.66,49.48 -29.45,78.64 h 524.32 c 25.42,0 47.66,7.95 66.72,23.83 19.07,15.89 29.12,36.54 30.19,61.96 0,57.19 -10.87,111.21 -32.57,162.04 -21.72,50.84 -51.1,95.57 -88.17,134.25 -37.08,38.65 -79.7,69.1 -127.89,91.35 -48.21,22.24 -99.29,33.36 -153.31,33.36 -69.9,0 -136.1,-18.02 -198.58,-54.01 -62.51,-36.02 -113.07,-87.66 -151.72,-154.9 -38.67,-67.27 -57.99,-148.54 -57.99,-243.87 0,-81.56 17.73,-154.64 53.23,-219.23 35.46,-64.62 86.3,-115.73 152.51,-153.31"
         style="fill:#FFFFFF;fill-opacity:1;fill-rule:nonzero;stroke:none"
         id="path22" /><path
         d="m 5044.67,1254.38 c 27.53,0 50.29,9.26 68.31,27.8 18,18.52 27.01,41.55 27.01,69.11 v 376.52 c 0,38.12 5.01,71.21 15.09,99.29 10.06,28.05 23.28,51.63 39.71,70.7 16.41,19.06 34.41,33.08 54.02,42.09 19.59,8.99 38.92,13.51 57.99,13.51 21.17,0 39.97,-3.72 56.39,-11.12 16.42,-7.42 34.68,-11.12 54.82,-11.12 21.17,0 40.76,7.66 58.78,23.03 18,15.35 27.01,40.51 27.01,75.47 0,24.35 -10.88,45.52 -32.57,63.54 -21.72,18 -48.46,27.01 -80.23,27.01 -26.49,0 -52.97,-3.18 -79.44,-9.53 -26.48,-6.36 -51.37,-16.16 -74.67,-29.39 -23.31,-13.26 -44.22,-29.66 -62.75,-49.25 -13.14,-13.91 -24.47,-29.34 -34.15,-46.16 v 21.53 c 0,27.53 -9.01,50.57 -27.01,69.11 -18.02,18.52 -40.78,27.8 -68.31,27.8 -27.56,0 -50.32,-9.28 -68.31,-27.8 -18.03,-18.54 -27.01,-41.58 -27.01,-69.11 v -656.12 c 0,-27.56 8.98,-50.59 27.01,-69.11 17.99,-18.54 40.75,-27.8 68.31,-27.8"
         style="fill:#FFFFFF;fill-opacity:1;fill-rule:nonzero;stroke:none"
         id="path24" /><path
         d="m 1594.1,1694.3 v 340.2 c 0,24.9 -10.1,47.5 -26.4,63.9 -16.4,16.4 -39,26.5 -63.9,26.5 -31.9,0 -59.9,-16.5 -76,-41.4 -7.4,-11.4 -12.2,-24.7 -13.8,-38.9 -0.4,-3.3 -0.6,-6.7 -0.6,-10.1 v -340.2 c 0,-49.9 -14.7,-96.4 -40,-135.4 -44.4,-68.8 -121.8,-114.3 -209.8,-114.3 -137.9,0 -249.705,111.8 -249.705,249.7 0,138 111.805,249.8 249.705,249.8 88,0 165.4,-45.5 209.8,-114.3 v 204.7 c 0,0.14 0.02,0.27 0.02,0.4 v 35.42 c -62.11,34.7 -133.59,54.58 -209.82,54.58 -237.799,0 -430.498,-192.8 -430.498,-430.6 0,-237.7 192.699,-430.5 430.498,-430.5 76.2,0 147.7,19.8 209.8,54.5 13.8,7.7 27.2,16.2 40,25.3 109.4,78.1 180.7,206.1 180.7,350.7"
         style="fill:#FFFFFF;fill-opacity:1;fill-rule:nonzero;stroke:none"
         id="path26" /><g
         id="g28"><g
           id="g30"
           clip-path="url(#clipPath34)"><path
             d="m 5518.3,1121.88 -0.52,0.52 c -35.17,35.18 -92.2,35.18 -127.37,0.01 0,0 -137.31,-137.512 -140.51,-140.512 -44.7,-42.199 -105,-68.097 -171.3,-68.097 H 1843.9 c -87.9,0 -165.3,45.5 -209.7,114.199 -25.4,39 -40.1,85.6 -40.1,135.6 v 336.74 c 0,0.96 -1.27,1.22 -1.66,0.35 -33.78,-74.52 -86.43,-138.78 -151.94,-186.49 -8.8,-6.5 -17.8,-12.6 -27.1,-18.4 v -132.2 c 0,-93.2 29.6,-179.401 79.8,-249.799 27.8,-39 61.9,-73.102 100.9,-100.903 12.8,-9.097 26.2,-17.597 40.1,-25.296 62,-34.704 133.6,-54.5 209.7,-54.5 h 3234.7 c 117.9,0 224.7,47.398 302.4,124.199 l 137.26,137.25 c 35.15,35.159 35.17,92.149 0.04,127.329 v 0"
             style="fill:url(#linearGradient40);fill-opacity:1;fill-rule:nonzero;stroke:none"
             id="path42" /></g></g><path
         d="m 5827.6,1327.31 c -28.48,-28.39 -74.56,-28.39 -103.05,0 -28.55,28.45 -28.63,74.67 -0.17,103.23 0.05,0.05 0.11,0.11 0.17,0.17 28.56,28.46 74.77,28.38 103.23,-0.17 28.46,-28.56 28.38,-74.78 -0.18,-103.23 z m 166.78,304.75 c -3.6,0.5 -7.26,0.51 -10.87,0.03 -246.63,-30.33 -388.07,-140.88 -468.69,-249.71 l -37.79,1.94 c -27.42,1.49 -54.2,-8.67 -73.72,-27.98 l -58.96,-58.96 c -2.56,-2.18 -2.88,-6.01 -0.7,-8.57 0.71,-0.83 1.61,-1.45 2.64,-1.81 l 94.08,-39.01 c -8.26,-20.85 -15.1,-42.22 -20.71,-63.92 11.09,3.03 22.62,4.71 34.43,4.71 34.74,0 67.41,-13.53 91.98,-38.11 34.99,-35.02 46.01,-84.64 33.31,-128.73 22.31,5.69 44.27,12.7 65.69,21.18 l 39.01,-94.069 c 1.28,-3.11 4.83,-4.602 7.94,-3.321 0.76,0.309 1.46,0.782 2.04,1.372 l 58.96,58.958 c 19.46,19.46 29.77,46.24 28.39,73.72 l -2.11,37.88 c 109.16,80.61 219.62,221.98 249.71,468.69 3.06,22.18 -12.44,42.65 -34.63,45.71"
         style="fill:#FFFFFF;fill-opacity:1;fill-rule:nonzero;stroke:none"
         id="path44" /></g></g></svg>
