<?xml version="1.0" encoding="UTF-8" standalone="no"?>
<svg xmlns="http://www.w3.org/2000/svg" version="1.1" id="svg2" xml:space="preserve" width="429.04001"
     height="378.04001" viewBox="0 0 429.04001 378.04001">
    <defs id="defs6"/>
    <g id="g10" transform="matrix(1.3333333,0,0,-1.3333333,0,378.04)">
        <g id="g12" transform="scale(0.1)">
            <path d="m 2289.05,1278.11 c -28.49,-28.39 -74.56,-28.39 -103.05,0 -28.55,28.45 -28.63,74.67 -0.18,103.23 0.06,0.05 0.13,0.11 0.18,0.17 28.56,28.46 74.77,28.38 103.23,-0.18 28.45,-28.55 28.38,-74.77 -0.18,-103.22 z m 166.78,304.75 c -3.6,0.5 -7.26,0.51 -10.87,0.03 -246.63,-30.33 -388.07,-140.88 -468.69,-249.71 l -37.79,1.94 c -27.42,1.49 -54.19,-8.67 -73.72,-27.98 l -58.97,-58.96 c -2.55,-2.18 -2.86,-6.01 -0.69,-8.57 0.7,-0.83 1.62,-1.45 2.64,-1.81 l 94.08,-39.01 c -8.26,-20.85 -15.1,-42.22 -20.71,-63.92 11.09,3.03 22.62,4.71 34.43,4.71 34.75,0 67.41,-13.53 91.98,-38.11 34.99,-35.02 46.01,-84.64 33.31,-128.732 22.32,5.692 44.28,12.703 65.69,21.184 l 39.02,-94.07 c 1.27,-3.114 4.82,-4.602 7.93,-3.321 0.77,0.309 1.46,0.778 2.04,1.367 l 58.96,58.961 c 19.46,19.461 29.77,46.241 28.38,73.721 l -2.1,37.88 c 109.16,80.62 219.62,221.97 249.71,468.69 3.06,22.18 -12.44,42.65 -34.63,45.71"
                  style="fill:#ffffff;fill-opacity:1;fill-rule:nonzero;stroke:none" id="path14"/>
            <path
                    d="m 2005.5,1009.5 c 0,-23.199 -8.8,-46.398 -26.5,-64 L 1839.7,806.301 c -45.2,-45.199 -107.6,-73.199 -176.6,-73.199 -9.8,0 -19.5,0.597 -29,1.699 -13.7,1.597 -27.1,4.289 -40,8 -18.3,5.199 -35.6,12.5 -51.9,21.597 -76.8,42.391 -128.8,124.403 -128.8,218.5 V 1295.9 c 78.06,48.98 140.76,120.4 179.03,205.07 0.4,0.88 1.67,0.61 1.67,-0.35 V 982.898 c 0,-27.699 16.4,-51.699 40,-62.597 8.8,-4.102 18.7,-6.403 29,-6.403 19,0 36.3,7.692 48.8,20.192 l 139.3,139.31 c 10.2,10.2 22.2,17.5 35,21.7 31.5,10.7 67.7,3.4 92.8,-21.7 17.7,-17.7 26.5,-40.8 26.5,-63.9"
                    style="fill:#ffffff;fill-opacity:1;fill-rule:nonzero;stroke:none" id="path16"/>
            <path
                    d="m 1594.1,1694.3 v 340.2 c 0,24.9 -10.1,47.5 -26.4,63.89 -16.4,16.41 -39,26.51 -63.9,26.51 -31.9,0 -59.9,-16.51 -76,-41.4 -7.4,-11.4 -12.2,-24.7 -13.8,-38.9 -0.4,-3.3 -0.6,-6.7 -0.6,-10.1 v -340.2 c 0,-49.9 -14.7,-96.4 -40,-135.4 -44.4,-68.8 -121.8,-114.3 -209.8,-114.3 -137.9,0 -249.702,111.8 -249.702,249.7 0,138 111.802,249.8 249.702,249.8 88,0 165.4,-45.5 209.8,-114.3 v 204.7 c 0,0.14 0.03,0.27 0.03,0.4 v 35.42 c -62.12,34.7 -133.6,54.58 -209.83,54.58 -237.799,0 -430.502,-192.8 -430.502,-430.6 0,-237.7 192.703,-430.5 430.502,-430.5 76.2,0 147.7,19.8 209.8,54.5 13.8,7.7 27.2,16.2 40,25.3 109.4,78.1 180.7,206.1 180.7,350.7"
                    style="fill:#ffffff;fill-opacity:1;fill-rule:nonzero;stroke:none" id="path18"/>
        </g>
    </g>
</svg>
