<?xml version="1.0" encoding="UTF-8"?>
<svg xmlns="http://www.w3.org/2000/svg" xmlns:xlink="http://www.w3.org/1999/xlink" width="48pt" height="48pt" viewBox="0 0 48 48" version="1.2">
<defs>
<clipPath id="clip1">
  <path d="M 20 17 L 41 17 L 41 38 L 20 38 Z M 20 17 "/>
</clipPath>
<clipPath id="clip2">
  <path d="M 18.441406 34.84375 L 28.714844 15.242188 L 42.929688 22.691406 L 32.652344 42.296875 Z M 18.441406 34.84375 "/>
</clipPath>
<clipPath id="clip3">
  <path d="M 18.441406 34.84375 L 28.714844 15.242188 L 42.929688 22.691406 L 32.652344 42.296875 Z M 18.441406 34.84375 "/>
</clipPath>
<clipPath id="clip4">
  <path d="M 11 1 L 22 1 L 22 17 L 11 17 Z M 11 1 "/>
</clipPath>
<clipPath id="clip5">
  <path d="M 7.527344 11.671875 L 17.71875 0 L 25.636719 6.917969 L 15.445312 18.585938 Z M 7.527344 11.671875 "/>
</clipPath>
<clipPath id="clip6">
  <path d="M 7.527344 11.671875 L 17.71875 0 L 25.636719 6.917969 L 15.445312 18.585938 Z M 7.527344 11.671875 "/>
</clipPath>
<clipPath id="clip7">
  <path d="M 5 38 L 14 38 L 14 46 L 5 46 Z M 5 38 "/>
</clipPath>
<clipPath id="clip8">
  <path d="M 14.386719 41.003906 L 11.304688 46.886719 L 4.933594 43.546875 L 8.015625 37.664062 Z M 14.386719 41.003906 "/>
</clipPath>
<clipPath id="clip9">
  <path d="M 14.386719 41.003906 L 11.304688 46.886719 L 4.933594 43.546875 L 8.015625 37.664062 Z M 14.386719 41.003906 "/>
</clipPath>
<clipPath id="clip10">
  <path d="M 14.378906 41 L 11.210938 47.039062 L 4.84375 43.703125 L 8.011719 37.660156 Z M 14.378906 41 "/>
</clipPath>
<clipPath id="clip11">
  <path d="M 14.378906 41 L 11.292969 46.882812 L 4.945312 43.554688 L 8.03125 37.671875 Z M 14.378906 41 "/>
</clipPath>
</defs>
<g id="surface1">
<g clip-path="url(#clip1)" clip-rule="nonzero">
<g clip-path="url(#clip2)" clip-rule="nonzero">
<g clip-path="url(#clip3)" clip-rule="nonzero">
<path style=" stroke:none;fill-rule:evenodd;fill:rgb(48.239136%,17.248535%,74.899292%);fill-opacity:1;" d="M 25.835938 20.796875 C 26.378906 19.742188 27.164062 19.003906 28.011719 18.324219 C 28.769531 17.71875 29.628906 17.332031 30.574219 17.132812 C 31.589844 16.917969 32.4375 17.207031 33.082031 18.015625 C 33.382812 18.394531 33.628906 18.820312 33.871094 19.242188 C 34.113281 19.660156 34.386719 20.050781 34.832031 20.261719 C 35.285156 20.472656 35.757812 20.636719 36.222656 20.808594 C 36.65625 20.972656 37.109375 21.085938 37.523438 21.289062 C 38.8125 21.914062 39.679688 22.933594 40.1875 24.269531 C 40.742188 25.734375 40.59375 27.140625 39.8125 28.480469 C 39.660156 28.738281 39.4375 28.980469 39.195312 29.160156 C 38.796875 29.457031 38.375 29.734375 37.929688 29.957031 C 37.054688 30.398438 36.304688 30.980469 35.738281 31.78125 C 35.457031 32.179688 35.230469 32.609375 35.101562 33.085938 C 34.859375 34.003906 34.5 34.867188 33.855469 35.578125 C 33.300781 36.183594 32.640625 36.636719 31.851562 36.894531 C 31.277344 37.085938 30.777344 36.957031 30.320312 36.585938 C 29.777344 36.144531 29.234375 35.699219 28.691406 35.261719 C 28.3125 34.957031 27.871094 34.78125 27.410156 34.660156 C 27.128906 34.585938 26.859375 34.625 26.636719 34.820312 C 26.425781 35.007812 26.21875 35.207031 26.035156 35.421875 C 25.675781 35.835938 25.320312 36.25 24.84375 36.539062 C 24.179688 36.9375 23.480469 37.132812 22.699219 36.941406 C 22.183594 36.8125 21.777344 36.523438 21.507812 36.09375 C 20.6875 34.800781 20.402344 33.40625 20.78125 31.902344 C 20.917969 31.359375 21.242188 30.9375 21.648438 30.578125 C 21.996094 30.273438 22.359375 29.980469 22.726562 29.699219 C 23.328125 29.238281 23.839844 28.710938 24.164062 28.007812 C 24.40625 27.480469 24.503906 26.921875 24.59375 26.359375 C 24.800781 25.117188 24.988281 23.875 25.210938 22.636719 C 25.332031 21.96875 25.542969 21.324219 25.835938 20.796875 Z M 25.835938 20.796875 "/>
</g>
</g>
</g>
<g clip-path="url(#clip4)" clip-rule="nonzero">
<g clip-path="url(#clip5)" clip-rule="nonzero">
<g clip-path="url(#clip6)" clip-rule="nonzero">
<path style=" stroke:none;fill-rule:nonzero;fill:rgb(61.569214%,30.589294%,86.669922%);fill-opacity:1;" d="M 12.941406 12.355469 C 13.121094 12.144531 13.316406 11.953125 13.53125 11.777344 C 13.859375 11.5 14.140625 11.179688 14.371094 10.820312 C 14.578125 10.488281 14.722656 10.128906 14.847656 9.757812 C 14.9375 9.484375 14.894531 9.222656 14.78125 8.96875 C 14.632812 8.648438 14.476562 8.335938 14.3125 8.023438 C 14.167969 7.738281 13.996094 7.46875 13.890625 7.167969 C 13.738281 6.75 13.695312 6.300781 13.765625 5.863281 C 13.820312 5.542969 13.863281 5.222656 13.914062 4.902344 C 13.953125 4.671875 14.046875 4.457031 14.160156 4.257812 C 14.433594 3.761719 14.792969 3.351562 15.273438 3.042969 C 15.839844 2.679688 16.4375 2.363281 17.0625 2.097656 C 17.527344 1.902344 18.023438 1.832031 18.523438 1.800781 C 18.800781 1.78125 19.078125 1.792969 19.347656 1.84375 C 19.65625 1.902344 19.949219 2.03125 20.199219 2.222656 C 20.46875 2.425781 20.730469 2.640625 20.910156 2.929688 C 21.269531 3.492188 21.425781 4.097656 21.265625 4.742188 C 21.207031 4.984375 21.105469 5.222656 21 5.453125 C 20.769531 5.964844 20.625 6.507812 20.570312 7.070312 C 20.527344 7.492188 20.574219 7.914062 20.636719 8.339844 C 20.703125 8.800781 20.785156 9.261719 20.828125 9.726562 C 20.890625 10.394531 20.890625 11.0625 20.753906 11.71875 C 20.675781 12.089844 20.566406 12.453125 20.367188 12.777344 C 20.027344 13.34375 19.542969 13.722656 18.875 13.835938 C 18.5 13.902344 18.125 13.949219 17.75 14.007812 C 17.414062 14.058594 17.078125 14.109375 16.761719 14.242188 C 16.402344 14.382812 16.085938 14.617188 15.847656 14.917969 C 15.667969 15.148438 15.503906 15.386719 15.332031 15.617188 C 15.140625 15.875 14.929688 16.117188 14.664062 16.304688 C 14.203125 16.648438 13.703125 16.660156 13.183594 16.417969 C 12.707031 16.1875 12.382812 15.808594 12.144531 15.355469 C 12.027344 15.132812 11.945312 14.890625 11.90625 14.648438 C 11.855469 14.3125 11.929688 14 12.058594 13.699219 C 12.203125 13.359375 12.402344 13.0625 12.621094 12.773438 Z M 12.941406 12.355469 "/>
</g>
</g>
</g>
<g clip-path="url(#clip7)" clip-rule="nonzero">
<g clip-path="url(#clip8)" clip-rule="nonzero">
<g clip-path="url(#clip9)" clip-rule="nonzero">
<g clip-path="url(#clip10)" clip-rule="nonzero">
<g clip-path="url(#clip11)" clip-rule="nonzero">
<path style=" stroke:none;fill-rule:nonzero;fill:rgb(61.569214%,30.589294%,86.669922%);fill-opacity:1;" d="M 9.558594 45.464844 C 8.578125 45.550781 4.730469 43.964844 5.527344 42.445312 C 10.230469 33.472656 17.84375 44.734375 9.558594 45.464844 "/>
</g>
</g>
</g>
</g>
</g>
</g>
</svg>
