<?xml version="1.0" encoding="UTF-8"?>
<svg xmlns="http://www.w3.org/2000/svg" xmlns:xlink="http://www.w3.org/1999/xlink" width="48pt" height="48pt" viewBox="0 0 48 48" version="1.2">
<defs>
<clipPath id="clip1">
  <path d="M 13 1 L 27 1 L 27 14 L 13 14 Z M 13 1 "/>
</clipPath>
<clipPath id="clip2">
  <path d="M 10.34375 6.527344 L 24.875 -0.101562 L 29.183594 9.34375 L 14.652344 15.972656 Z M 10.34375 6.527344 "/>
</clipPath>
<clipPath id="clip3">
  <path d="M 10.34375 6.527344 L 24.875 -0.101562 L 29.183594 9.34375 L 14.652344 15.972656 Z M 10.34375 6.527344 "/>
</clipPath>
<clipPath id="clip4">
  <path d="M 29 37 L 37 37 L 37 46 L 29 46 Z M 29 37 "/>
</clipPath>
<clipPath id="clip5">
  <path d="M 34.230469 47.015625 L 27.890625 43.628906 L 31.273438 37.289062 L 37.613281 40.671875 Z M 34.230469 47.015625 "/>
</clipPath>
<clipPath id="clip6">
  <path d="M 34.230469 47.015625 L 27.890625 43.628906 L 31.273438 37.289062 L 37.613281 40.671875 Z M 34.230469 47.015625 "/>
</clipPath>
<clipPath id="clip7">
  <path d="M 34.234375 47.003906 L 27.722656 43.527344 L 31.105469 37.191406 L 37.617188 40.667969 Z M 34.234375 47.003906 "/>
</clipPath>
<clipPath id="clip8">
  <path d="M 34.234375 47.003906 L 27.894531 43.621094 L 31.265625 37.300781 L 37.609375 40.6875 Z M 34.234375 47.003906 "/>
</clipPath>
</defs>
<g id="surface1">
<g clip-path="url(#clip1)" clip-rule="nonzero">
<g clip-path="url(#clip2)" clip-rule="nonzero">
<g clip-path="url(#clip3)" clip-rule="nonzero">
<path style=" stroke:none;fill-rule:nonzero;fill:rgb(35.289001%,9.408569%,60.389709%);fill-opacity:1;" d="M 15.054688 9.292969 C 15.3125 9.171875 15.582031 9.074219 15.855469 8.996094 C 16.277344 8.875 16.679688 8.691406 17.046875 8.457031 C 17.386719 8.234375 17.679688 7.960938 17.953125 7.671875 C 18.15625 7.460938 18.234375 7.203125 18.238281 6.925781 C 18.242188 6.574219 18.230469 6.226562 18.21875 5.878906 C 18.207031 5.5625 18.164062 5.246094 18.199219 4.929688 C 18.242188 4.488281 18.398438 4.058594 18.652344 3.6875 C 18.84375 3.417969 19.023438 3.144531 19.210938 2.871094 C 19.347656 2.671875 19.527344 2.515625 19.71875 2.375 C 20.191406 2.035156 20.703125 1.800781 21.28125 1.707031 C 21.964844 1.597656 22.65625 1.546875 23.351562 1.554688 C 23.863281 1.558594 24.355469 1.6875 24.832031 1.859375 C 25.097656 1.949219 25.347656 2.070312 25.578125 2.222656 C 25.835938 2.398438 26.050781 2.628906 26.199219 2.902344 C 26.359375 3.199219 26.507812 3.496094 26.550781 3.832031 C 26.636719 4.484375 26.515625 5.101562 26.085938 5.625 C 25.925781 5.828125 25.726562 6.003906 25.53125 6.171875 C 25.09375 6.546875 24.722656 6.988281 24.425781 7.476562 C 24.203125 7.847656 24.0625 8.25 23.933594 8.664062 C 23.792969 9.113281 23.667969 9.5625 23.507812 10.003906 C 23.273438 10.640625 22.980469 11.25 22.566406 11.796875 C 22.328125 12.105469 22.070312 12.390625 21.746094 12.613281 C 21.183594 12.992188 20.570312 13.148438 19.902344 12.988281 C 19.527344 12.902344 19.15625 12.796875 18.785156 12.703125 C 18.453125 12.613281 18.121094 12.53125 17.769531 12.523438 C 17.375 12.511719 16.980469 12.601562 16.628906 12.78125 C 16.363281 12.917969 16.101562 13.070312 15.84375 13.214844 C 15.554688 13.375 15.253906 13.511719 14.925781 13.582031 C 14.347656 13.710938 13.882812 13.527344 13.507812 13.097656 C 13.164062 12.703125 13.03125 12.226562 13.007812 11.71875 C 12.996094 11.46875 13.027344 11.214844 13.097656 10.976562 C 13.195312 10.652344 13.402344 10.398438 13.652344 10.167969 C 13.929688 9.917969 14.25 9.726562 14.578125 9.550781 Z M 15.054688 9.292969 "/>
</g>
</g>
</g>
<g clip-path="url(#clip4)" clip-rule="nonzero">
<g clip-path="url(#clip5)" clip-rule="nonzero">
<g clip-path="url(#clip6)" clip-rule="nonzero">
<g clip-path="url(#clip7)" clip-rule="nonzero">
<g clip-path="url(#clip8)" clip-rule="nonzero">
<path style=" stroke:none;fill-rule:nonzero;fill:rgb(78.039551%,49.01886%,100%);fill-opacity:1;" d="M 29.355469 41.914062 C 29.238281 40.914062 30.824219 37.066406 32.460938 37.9375 C 42.136719 43.101562 30.351562 50.375 29.355469 41.914062 "/>
</g>
</g>
</g>
</g>
</g>
</g>
</svg>
