<?xml version="1.0" encoding="UTF-8"?>
<svg xmlns="http://www.w3.org/2000/svg" xmlns:xlink="http://www.w3.org/1999/xlink" width="48pt" height="48pt" viewBox="0 0 48 48" version="1.2">
<defs>
<clipPath id="clip1">
  <path d="M 23 25 L 43 25 L 43 43 L 23 43 Z M 23 25 "/>
</clipPath>
<clipPath id="clip2">
  <path d="M 21.625 36.964844 L 35.332031 23.257812 L 45.609375 33.539062 L 31.902344 47.246094 Z M 21.625 36.964844 "/>
</clipPath>
<clipPath id="clip3">
  <path d="M 21.625 36.964844 L 35.332031 23.257812 L 45.609375 33.539062 L 31.902344 47.246094 Z M 21.625 36.964844 "/>
</clipPath>
<clipPath id="clip4">
  <path d="M 20 1 L 31 1 L 31 13 L 20 13 Z M 20 1 "/>
</clipPath>
<clipPath id="clip5">
  <path d="M 17.242188 7.125 L 29.042969 -0.113281 L 33.75 7.558594 L 21.945312 14.800781 Z M 17.242188 7.125 "/>
</clipPath>
<clipPath id="clip6">
  <path d="M 17.242188 7.125 L 29.042969 -0.113281 L 33.75 7.558594 L 21.945312 14.800781 Z M 17.242188 7.125 "/>
</clipPath>
<clipPath id="clip7">
  <path d="M 2 22 L 10 22 L 10 29 L 2 29 Z M 2 22 "/>
</clipPath>
<clipPath id="clip8">
  <path d="M 11.132812 25.707031 L 6.726562 30.113281 L 2.320312 25.707031 L 6.726562 21.300781 Z M 11.132812 25.707031 "/>
</clipPath>
<clipPath id="clip9">
  <path d="M 11.132812 25.707031 L 6.726562 30.113281 L 2.320312 25.707031 L 6.726562 21.300781 Z M 11.132812 25.707031 "/>
</clipPath>
<clipPath id="clip10">
  <path d="M 11.125 25.699219 L 6.601562 30.222656 L 2.195312 25.820312 L 6.722656 21.296875 Z M 11.125 25.699219 "/>
</clipPath>
<clipPath id="clip11">
  <path d="M 11.125 25.699219 L 6.71875 30.105469 L 2.328125 25.714844 L 6.734375 21.308594 Z M 11.125 25.699219 "/>
</clipPath>
</defs>
<g id="surface1">
<g clip-path="url(#clip1)" clip-rule="nonzero">
<g clip-path="url(#clip2)" clip-rule="nonzero">
<g clip-path="url(#clip3)" clip-rule="nonzero">
<path style=" stroke:none;fill-rule:evenodd;fill:rgb(100%,100%,100%);fill-opacity:1;" d="M 31.476562 27.152344 C 32.203125 26.410156 33.058594 26.007812 33.957031 25.671875 C 34.753906 25.371094 35.585938 25.28125 36.445312 25.378906 C 37.367188 25.480469 38.019531 25.964844 38.363281 26.828125 C 38.527344 27.230469 38.632812 27.660156 38.734375 28.085938 C 38.835938 28.507812 38.96875 28.914062 39.300781 29.214844 C 39.632812 29.519531 39.996094 29.789062 40.347656 30.070312 C 40.679688 30.328125 41.039062 30.550781 41.339844 30.839844 C 42.285156 31.730469 42.773438 32.832031 42.867188 34.105469 C 42.972656 35.5 42.496094 36.648438 41.488281 37.5625 C 41.296875 37.738281 41.042969 37.878906 40.792969 37.964844 C 40.378906 38.105469 39.945312 38.21875 39.511719 38.28125 C 38.652344 38.410156 37.863281 38.695312 37.179688 39.214844 C 36.835938 39.472656 36.535156 39.769531 36.308594 40.140625 C 35.871094 40.847656 35.347656 41.476562 34.617188 41.898438 C 33.992188 42.257812 33.3125 42.453125 32.574219 42.453125 C 32.035156 42.449219 31.640625 42.203125 31.34375 41.761719 C 30.988281 41.234375 30.636719 40.710938 30.28125 40.1875 C 30.035156 39.824219 29.703125 39.550781 29.335938 39.316406 C 29.117188 39.175781 28.875 39.132812 28.636719 39.238281 C 28.410156 39.335938 28.183594 39.449219 27.972656 39.578125 C 27.5625 39.828125 27.152344 40.078125 26.675781 40.191406 C 26.003906 40.34375 25.359375 40.308594 24.738281 39.929688 C 24.332031 39.679688 24.054688 39.320312 23.933594 38.878906 C 23.558594 37.558594 23.664062 36.296875 24.367188 35.128906 C 24.617188 34.710938 25 34.445312 25.4375 34.253906 C 25.8125 34.09375 26.195312 33.949219 26.578125 33.8125 C 27.210938 33.589844 27.78125 33.285156 28.234375 32.785156 C 28.574219 32.40625 28.796875 31.960938 29.015625 31.511719 C 29.503906 30.519531 29.976562 29.519531 30.476562 28.535156 C 30.746094 28.003906 31.09375 27.519531 31.476562 27.152344 Z M 31.476562 27.152344 "/>
</g>
</g>
</g>
<g clip-path="url(#clip4)" clip-rule="nonzero">
<g clip-path="url(#clip5)" clip-rule="nonzero">
<g clip-path="url(#clip6)" clip-rule="nonzero">
<path style=" stroke:none;fill-rule:nonzero;fill:rgb(97.24884%,97.648621%,98.039246%);fill-opacity:1;" d="M 21.589844 9.007812 C 21.796875 8.878906 22.015625 8.765625 22.246094 8.667969 C 22.59375 8.519531 22.921875 8.320312 23.214844 8.078125 C 23.480469 7.851562 23.703125 7.585938 23.910156 7.308594 C 24.0625 7.105469 24.101562 6.875 24.078125 6.636719 C 24.042969 6.335938 23.996094 6.035156 23.949219 5.738281 C 23.90625 5.464844 23.835938 5.199219 23.832031 4.921875 C 23.824219 4.535156 23.914062 4.152344 24.09375 3.804688 C 24.226562 3.554688 24.355469 3.300781 24.488281 3.042969 C 24.582031 2.859375 24.722656 2.707031 24.871094 2.566406 C 25.242188 2.222656 25.65625 1.964844 26.144531 1.824219 C 26.722656 1.660156 27.3125 1.542969 27.910156 1.472656 C 28.351562 1.421875 28.785156 1.484375 29.21875 1.578125 C 29.453125 1.628906 29.679688 1.707031 29.894531 1.816406 C 30.136719 1.9375 30.347656 2.113281 30.503906 2.335938 C 30.671875 2.570312 30.832031 2.808594 30.902344 3.097656 C 31.046875 3.648438 31.007812 4.191406 30.691406 4.6875 C 30.574219 4.878906 30.425781 5.050781 30.273438 5.21875 C 29.9375 5.585938 29.664062 6.003906 29.460938 6.457031 C 29.304688 6.800781 29.226562 7.164062 29.160156 7.53125 C 29.089844 7.929688 29.027344 8.332031 28.933594 8.730469 C 28.800781 9.300781 28.613281 9.855469 28.316406 10.367188 C 28.144531 10.660156 27.953125 10.933594 27.695312 11.15625 C 27.253906 11.546875 26.742188 11.742188 26.148438 11.675781 C 25.816406 11.640625 25.488281 11.589844 25.160156 11.546875 C 24.863281 11.507812 24.566406 11.46875 24.265625 11.503906 C 23.921875 11.53125 23.59375 11.652344 23.308594 11.84375 C 23.097656 11.992188 22.890625 12.148438 22.679688 12.300781 C 22.449219 12.46875 22.203125 12.617188 21.929688 12.714844 C 21.445312 12.886719 21.027344 12.773438 20.65625 12.445312 C 20.324219 12.140625 20.15625 11.746094 20.082031 11.3125 C 20.046875 11.097656 20.046875 10.878906 20.082031 10.664062 C 20.132812 10.375 20.28125 10.132812 20.472656 9.910156 C 20.6875 9.664062 20.9375 9.464844 21.203125 9.28125 Z M 21.589844 9.007812 "/>
</g>
</g>
</g>
<g clip-path="url(#clip7)" clip-rule="nonzero">
<g clip-path="url(#clip8)" clip-rule="nonzero">
<g clip-path="url(#clip9)" clip-rule="nonzero">
<g clip-path="url(#clip10)" clip-rule="nonzero">
<g clip-path="url(#clip11)" clip-rule="nonzero">
<path style=" stroke:none;fill-rule:nonzero;fill:rgb(97.24884%,97.648621%,98.039246%);fill-opacity:1;" d="M 5.671875 28.464844 C 4.8125 28.308594 2.019531 26.023438 3.160156 24.886719 C 9.882812 18.160156 12.941406 29.769531 5.671875 28.464844 "/>
</g>
</g>
</g>
</g>
</g>
</g>
</svg>
